<?xml version="1.0" encoding="utf-8"?>
<!-- Generator: Adobe Illustrator 21.1.0, SVG Export Plug-In . SVG Version: 6.00 Build 0)  -->
<svg version="1.1" id="Capa_1" xmlns="http://www.w3.org/2000/svg" xmlns:xlink="http://www.w3.org/1999/xlink" x="0px" y="0px"
	 viewBox="0 0 230 230" style="enable-background:new 0 0 230 230;" xml:space="preserve">
<style type="text/css">
	.st0{fill:#FFFFFF;}
	.st1{fill:none;}
</style>
<g>
	<path class="st0" d="M181.8,59.2c-16.2-20.7-40.5-32.5-66.8-32.5S64.5,38.5,48.2,59.2l-2.7,3.4h10.2l0.6-0.7
		C71,44.5,92.4,34.6,115,34.6c22.6,0,44,9.9,58.6,27.2l0.6,0.7h10.2L181.8,59.2z M175.2,60.5c-14.5-17.1-36.1-27.9-60.2-27.9
		S69.3,43.4,54.8,60.5h-4.9C65,41.2,88.6,28.7,115,28.7c26.4,0,50,12.4,65.1,31.7H175.2z"/>
	<path class="st0" d="M127.3,91.9v11.7h20.3v6.3h-27.1V70.4h6.8v9.9V91.9z"/>
	<g>
		<path class="st0" d="M82.4,70.4v8.8V92c0,11.4-6.4,17-16.4,17c-9.9,0-16.2-5.7-16.2-16.8V79.5v-9.1h6.7v8.9
			c0,7.1,3.7,10.8,9.7,10.8c5.9,0,9.6-3.5,9.6-10.6v-9.1H82.4z M75.6,93.8c-2.6,1.6-5.8,2.5-9.6,2.5c-3.7,0-6.9-0.8-9.4-2.4
			c0.6,5.8,4.1,8.9,9.5,8.9C71.6,102.9,75.1,99.8,75.6,93.8z"/>
	</g>
	<path class="st0" d="M127.4,91.9v11.7h20.3v6.3h-27.1V70.4h6.8v9.9V91.9z"/>
	<path class="st0" d="M94.4,91.9v11.7h20.3v6.3H87.6V70.4h6.8v9.9V91.9z"/>
	<g>
		<path class="st0" d="M180.7,103v6.1h-28.9V103l6.8-8.7l3.5-4.5l-3.5-4.5l-6.8-8.7v-6h28.6v6.1H160l7.9,10.2h7.1v6.1h-7.1L160,103
			H180.7z"/>
	</g>
	<g>
		<path class="st0" d="M216.7,70.4v6.3v13h-6.9v-13h-5.4V109h-6.8V76.7h-5.4v13h-6.9v-13v-6.3h6.9h17.6H216.7z"/>
	</g>
	<polygon class="st0" points="31.8,103 26.7,103 19.9,103 13.3,103 13.3,109 19.9,109 27.4,109 32,109 35.7,109 40.9,102.4 
		44.3,97.9 40.9,93.4 36.8,88.2 38.5,86 42,81.6 38.3,76.8 33.4,70.4 32,70.4 25.1,70.4 19.9,70.4 13.3,70.4 13.3,76.5 29.8,76.5 
		33.7,81.6 31.8,84.1 29.8,86.7 25.7,86.7 19.9,86.7 13.3,86.7 13.3,92.4 26.8,92.4 31.8,92.4 36,97.9 	"/>
	<path class="st0" d="M175.9,165.3l-0.6,0.8c-14.7,18.6-36.7,29.3-60.3,29.3c-23.6,0-45.6-10.7-60.3-29.3l-0.6-0.8h-9.9l2.5,3.3
		c15.9,21.7,41.5,34.7,68.4,34.7s52.5-13,68.4-34.7l2.5-3.3H175.9z M115,201.3c-27.4,0-51.7-13.3-66.7-33.8h4.8
		c14.4,18.3,36.8,30.1,61.9,30.1c25.1,0,47.5-11.8,61.9-30.1h4.8C166.7,187.9,142.4,201.3,115,201.3z"/>
	<g>
		<path class="st0" d="M96.2,157.5h-5.7H89h-5h-6.9H62.8h-1.3h-5.7l17-39h6.3L96.2,157.5z M69.9,140.7l-4.5,10.8h9.2h6.9h5
			l-10.5-24.8l-2.7,6.2L69.9,140.7z"/>
		<path class="st0" d="M132.9,131.2c0,0,0,0.1,0,0.2c0,0.1,0,0.1,0,0.2v0.1c0,3.4-1.2,6.3-3.2,8.4c-1.7,1.7-4.3,2.9-7.3,3.5
			l9.9,13.9h-8.1l-9.6-13.6h-6.5v13.6h-6.8v-13.6v-3.4v-2.8h8.9l-0.3-0.4l-8.6-12.3v-2.8v-3.4h17.2c4.8,0,8.7,1.4,11.1,3.9
			C131.7,124.8,132.9,127.7,132.9,131.2L132.9,131.2z M126,131.4c0-4.1-3-6.3-8-6.3h-8.7l9,12.7C123.1,137.6,126,135.4,126,131.4z"
			/>
		<polygon class="st1" points="146.7,125.3 146.7,133.7 146.7,138.3 165.1,118.9 146.7,118.9 		"/>
		<polygon class="st0" points="146.7,138.3 146.7,133.7 146.7,125.3 146.7,118.9 144.8,118.9 139.9,118.9 139.9,157.5 146.7,157.5 
			146.7,148.8 153.3,157.5 161.5,157.5 150.3,142.7 150.1,142.7 152.7,140.1 165.9,157.5 174.2,157.5 157.3,135.5 173.5,118.9 
			165.1,118.9 		"/>
	</g>
</g>
</svg>
